<?xml version="1.0" encoding="utf-8"?><svg viewBox="0 0 73 72" xmlns="http://www.w3.org/2000/svg" xmlns:xlink="http://www.w3.org/1999/xlink"><style>:root>svg{display:none}:root>svg:target{display:block}</style><svg viewBox="0 0 48 48" id="briefcase" xmlns="http://www.w3.org/2000/svg"><g clip-path="url(#aa)"><path d="M42.589 12.525h-5.07v-5.07a3.38 3.38 0 0 0-3.38-3.38H13.861a3.38 3.38 0 0 0-3.38 3.38v5.07h-5.07a5.07 5.07 0 0 0-5.07 5.07v23.658a3.38 3.38 0 0 0 3.38 3.38H44.28a3.38 3.38 0 0 0 3.38-3.38V17.595a5.07 5.07 0 0 0-5.07-5.07ZM13.86 7.455h20.278v5.07H13.861v-5.07Zm30.418 33.798H3.721V26.044H17.24v8.45h13.518v-8.45h13.52v15.21ZM20.62 26.044h6.76v5.07h-6.76v-5.07Zm-16.898-3.38v-5.07a1.69 1.69 0 0 1 1.69-1.689h37.177a1.69 1.69 0 0 1 1.69 1.69v5.07H3.721Z"/></g><defs><clipPath id="aa"><path transform="translate(0 4)" d="M0 0h48v40.709H0z"/></clipPath></defs></svg><svg viewBox="0 0 48 48" id="briefcase" xmlns="http://www.w3.org/2000/svg"><g clip-path="url(#la)"><path d="M42.589 12.525h-5.07v-5.07a3.38 3.38 0 0 0-3.38-3.38H13.861a3.38 3.38 0 0 0-3.38 3.38v5.07h-5.07a5.07 5.07 0 0 0-5.07 5.07v23.658a3.38 3.38 0 0 0 3.38 3.38H44.28a3.38 3.38 0 0 0 3.38-3.38V17.595a5.07 5.07 0 0 0-5.07-5.07ZM13.86 7.455h20.278v5.07H13.861v-5.07Zm30.418 33.798H3.721V26.044H17.24v8.45h13.518v-8.45h13.52v15.21ZM20.62 26.044h6.76v5.07h-6.76v-5.07Zm-16.898-3.38v-5.07a1.69 1.69 0 0 1 1.69-1.689h37.177a1.69 1.69 0 0 1 1.69 1.69v5.07H3.721Z"/></g><defs><clipPath id="la"><path transform="translate(0 4)" d="M0 0h48v40.709H0z"/></clipPath></defs></svg><svg viewBox="0 0 24 24" id="facebook" xmlns="http://www.w3.org/2000/svg"><g clip-path="url(#ba)"><path d="M23.04 0H.96A.959.959 0 0 0 0 .96v22.08c0 .531.429.96.96.96h22.08c.531 0 .96-.429.96-.96V.96a.959.959 0 0 0-.96-.96Zm-2.772 7.005h-1.917c-1.503 0-1.794.714-1.794 1.764v2.313h3.588l-.468 3.621h-3.12V24h-3.741v-9.294H9.687v-3.624h3.129v-2.67c0-3.099 1.893-4.788 4.659-4.788 1.326 0 2.463.099 2.796.144v3.237h-.003Z"/></g><defs><clipPath id="ba"><path d="M0 0h24v24H0z"/></clipPath></defs></svg><svg viewBox="0 0 24 24" id="facebook" xmlns="http://www.w3.org/2000/svg"><g clip-path="url(#ma)"><path d="M23.04 0H.96A.959.959 0 0 0 0 .96v22.08c0 .531.429.96.96.96h22.08c.531 0 .96-.429.96-.96V.96a.959.959 0 0 0-.96-.96Zm-2.772 7.005h-1.917c-1.503 0-1.794.714-1.794 1.764v2.313h3.588l-.468 3.621h-3.12V24h-3.741v-9.294H9.687v-3.624h3.129v-2.67c0-3.099 1.893-4.788 4.659-4.788 1.326 0 2.463.099 2.796.144v3.237h-.003Z"/></g><defs><clipPath id="ma"><path d="M0 0h24v24H0z"/></clipPath></defs></svg><svg viewBox="0 0 24 24" id="instagram" xmlns="http://www.w3.org/2000/svg"><g clip-path="url(#ca)"><path d="M12.002 5.847A6.144 6.144 0 0 0 5.849 12a6.144 6.144 0 0 0 6.153 6.153A6.144 6.144 0 0 0 18.155 12a6.144 6.144 0 0 0-6.153-6.153Zm0 10.152a4.007 4.007 0 0 1-4-3.999 4.007 4.007 0 0 1 4-3.999 4.007 4.007 0 0 1 3.999 4 4.007 4.007 0 0 1-4 3.998Zm6.405-11.838c-.795 0-1.437.642-1.437 1.437s.642 1.437 1.437 1.437a1.433 1.433 0 0 0 1.328-1.987 1.436 1.436 0 0 0-1.328-.887Zm5.589 7.84c0-1.657.015-3.298-.078-4.95-.093-1.92-.531-3.625-1.935-5.029C20.576.615 18.875.18 16.955.087 15.299-.006 13.658.01 12.005.01c-1.656 0-3.297-.015-4.95.078-1.92.092-3.625.53-5.028 1.934C.62 3.43.185 5.13.092 7.05-.001 8.706.014 10.347.014 12s-.015 3.297.078 4.95c.093 1.92.53 3.624 1.935 5.028 1.407 1.407 3.108 1.842 5.028 1.935 1.656.093 3.297.078 4.95.078 1.656 0 3.297.015 4.95-.078 1.92-.093 3.624-.53 5.028-1.935 1.407-1.407 1.842-3.108 1.935-5.028.096-1.653.078-3.294.078-4.95Zm-2.64 7.073a3.812 3.812 0 0 1-.906 1.374 3.838 3.838 0 0 1-1.374.906c-1.578.627-5.325.486-7.074.486-1.75 0-5.5.141-7.077-.483a3.812 3.812 0 0 1-1.374-.906 3.838 3.838 0 0 1-.906-1.374c-.624-1.58-.483-5.328-.483-7.077 0-1.749-.141-5.499.483-7.077.219-.546.483-.954.906-1.374.423-.42.828-.687 1.374-.906 1.578-.624 5.328-.483 7.077-.483 1.749 0 5.499-.14 7.077.483.546.22.954.483 1.374.906.423.423.687.828.906 1.374.624 1.578.483 5.328.483 7.077 0 1.75.14 5.496-.486 7.074Z"/></g><defs><clipPath id="ca"><path d="M0 0h24v24H0z"/></clipPath></defs></svg><svg viewBox="0 0 24 24" id="instagram" xmlns="http://www.w3.org/2000/svg"><g clip-path="url(#na)"><path d="M12.002 5.847A6.144 6.144 0 0 0 5.849 12a6.144 6.144 0 0 0 6.153 6.153A6.144 6.144 0 0 0 18.155 12a6.144 6.144 0 0 0-6.153-6.153Zm0 10.152a4.007 4.007 0 0 1-4-3.999 4.007 4.007 0 0 1 4-3.999 4.007 4.007 0 0 1 3.999 4 4.007 4.007 0 0 1-4 3.998Zm6.405-11.838c-.795 0-1.437.642-1.437 1.437s.642 1.437 1.437 1.437a1.433 1.433 0 0 0 1.328-1.987 1.436 1.436 0 0 0-1.328-.887Zm5.589 7.84c0-1.657.015-3.298-.078-4.95-.093-1.92-.531-3.625-1.935-5.029C20.576.615 18.875.18 16.955.087 15.299-.006 13.658.01 12.005.01c-1.656 0-3.297-.015-4.95.078C5.135.18 3.43.618 2.027 2.022.62 3.43.185 5.13.092 7.05-.001 8.706.014 10.347.014 12s-.015 3.297.078 4.95c.093 1.92.53 3.624 1.935 5.028 1.407 1.407 3.108 1.842 5.028 1.935 1.656.093 3.297.078 4.95.078 1.656 0 3.297.015 4.95-.078 1.92-.093 3.624-.53 5.028-1.935 1.407-1.407 1.842-3.108 1.935-5.028.096-1.653.078-3.294.078-4.95Zm-2.64 7.073a3.812 3.812 0 0 1-.906 1.374 3.838 3.838 0 0 1-1.374.906c-1.578.627-5.325.486-7.074.486-1.75 0-5.5.141-7.077-.483a3.812 3.812 0 0 1-1.374-.906 3.838 3.838 0 0 1-.906-1.374c-.624-1.58-.483-5.328-.483-7.077 0-1.749-.141-5.499.483-7.077.219-.546.483-.954.906-1.374.423-.42.828-.687 1.374-.906 1.578-.624 5.328-.483 7.077-.483 1.749 0 5.499-.14 7.077.483.546.22.954.483 1.374.906.423.423.687.828.906 1.374.624 1.578.483 5.328.483 7.077 0 1.75.14 5.496-.486 7.074Z"/></g><defs><clipPath id="na"><path d="M0 0h24v24H0z"/></clipPath></defs></svg><svg viewBox="0 0 72 72" id="map-point" xmlns="http://www.w3.org/2000/svg"><path d="M36.5 43C44.497 43 51 36.721 51 29s-6.503-14-14.5-14S22 21.279 22 29s6.503 14 14.5 14Zm0-21c3.998 0 7.25 3.14 7.25 7s-3.252 7-7.25 7-7.25-3.14-7.25-7 3.252-7 7.25-7Z"/><path d="M34.434 71.34a3.564 3.564 0 0 0 4.132 0C39.65 70.577 65.103 52.262 65 29.4 65 13.741 52.214 1 36.5 1S8 13.741 8 29.383c-.103 22.88 25.35 41.194 26.434 41.957ZM36.5 8.1c11.788 0 21.375 9.553 21.375 21.318C57.95 45.173 42.243 59.32 36.5 63.96c-5.74-4.644-21.45-18.794-21.375-34.56 0-11.747 9.587-21.3 21.375-21.3Z"/></svg><svg viewBox="0 0 72 72" id="map-point" xmlns="http://www.w3.org/2000/svg"><path d="M36.5 43C44.497 43 51 36.721 51 29s-6.503-14-14.5-14S22 21.279 22 29s6.503 14 14.5 14Zm0-21c3.998 0 7.25 3.14 7.25 7s-3.252 7-7.25 7-7.25-3.14-7.25-7 3.252-7 7.25-7Z"/><path d="M34.434 71.34a3.564 3.564 0 0 0 4.132 0C39.65 70.577 65.103 52.262 65 29.4 65 13.741 52.214 1 36.5 1S8 13.741 8 29.383c-.103 22.88 25.35 41.194 26.434 41.957ZM36.5 8.1c11.788 0 21.375 9.553 21.375 21.318C57.95 45.173 42.243 59.32 36.5 63.96c-5.74-4.644-21.45-18.794-21.375-34.56 0-11.747 9.587-21.3 21.375-21.3Z"/></svg><svg viewBox="0 0 32 32" id="menu-arrow-down" xmlns="http://www.w3.org/2000/svg"><g clip-path="url(#ea)"><path d="M14.492 22.174c-.077-.075-.408-.36-.68-.625-1.71-1.553-4.51-5.605-5.365-7.726-.138-.323-.428-1.138-.447-1.572 0-.417.096-.813.29-1.194a2.49 2.49 0 0 1 1.206-1.06c.35-.133 1.4-.34 1.419-.34 1.148-.209 3.013-.323 5.074-.323 1.964 0 3.754.114 4.919.284.019.02 1.323.226 1.77.454.815.418 1.322 1.232 1.322 2.104v.075c-.02.568-.527 1.761-.545 1.761-.856 2.007-3.519 5.965-5.288 7.558 0 0-.455.447-.739.642-.412.3-.91.46-1.419.455-.564 0-1.089-.17-1.517-.494Z"/></g><defs><clipPath id="ea"><path d="M0 0h32v32H0z"/></clipPath></defs></svg><svg viewBox="0 0 32 32" id="menu-arrow-down" xmlns="http://www.w3.org/2000/svg"><g clip-path="url(#pa)"><path d="M14.492 22.174c-.077-.075-.408-.36-.68-.625-1.71-1.553-4.51-5.605-5.365-7.726-.138-.323-.428-1.138-.447-1.572 0-.417.096-.813.29-1.194a2.49 2.49 0 0 1 1.206-1.06c.35-.133 1.4-.34 1.419-.34 1.148-.209 3.013-.323 5.074-.323 1.964 0 3.754.114 4.919.284.019.02 1.323.226 1.77.454.815.418 1.322 1.232 1.322 2.104v.075c-.02.568-.527 1.761-.545 1.761-.856 2.007-3.519 5.965-5.288 7.558 0 0-.455.447-.739.642-.412.3-.91.46-1.419.455-.564 0-1.089-.17-1.517-.494Z"/></g><defs><clipPath id="pa"><path d="M0 0h32v32H0z"/></clipPath></defs></svg><svg viewBox="0 0 48 48" id="notebook" xmlns="http://www.w3.org/2000/svg"><g clip-path="url(#fa)"><path d="M29.142 13.624H41.14v3.446H29.142v-3.446Zm0 8.614H41.14v3.445H29.142v-3.445Zm0 8.612H41.14v3.446H29.142v-3.445Z"/><path d="M44.568 5.011H3.432a3.423 3.423 0 0 0-2.423 1.01A3.458 3.458 0 0 0 .004 8.456v31.008c.001.914.363 1.79 1.005 2.436a3.423 3.423 0 0 0 2.423 1.01h41.136a3.425 3.425 0 0 0 2.422-1.011 3.459 3.459 0 0 0 1.006-2.435V8.456a3.461 3.461 0 0 0-1.005-2.435 3.423 3.423 0 0 0-2.423-1.01ZM3.432 8.456h18.854v31.008H3.432V8.456Zm22.282 31.008V8.456h18.854l.003 31.008H25.714Z"/></g><defs><clipPath id="fa"><path transform="translate(0 5)" d="M0 0h48v37.92H0z"/></clipPath></defs></svg><svg viewBox="0 0 48 48" id="notebook" xmlns="http://www.w3.org/2000/svg"><g clip-path="url(#qa)"><path d="M29.142 13.624H41.14v3.446H29.142v-3.446ZM29.142 22.238H41.14v3.445H29.142v-3.445ZM29.142 30.85H41.14v3.446H29.142v-3.445Z"/><path d="M44.568 5.011H3.432c-.909.001-1.78.364-2.423 1.01A3.458 3.458 0 0 0 .004 8.456v31.008c.001.914.363 1.79 1.005 2.436a3.423 3.423 0 0 0 2.423 1.01h41.136a3.425 3.425 0 0 0 2.422-1.011 3.459 3.459 0 0 0 1.006-2.435V8.456c-.001-.913-.363-1.789-1.005-2.435a3.423 3.423 0 0 0-2.423-1.01ZM3.432 8.456h18.854v31.008H3.432V8.456Zm22.282 31.008V8.456h18.854l.003 31.008H25.714Z"/></g><defs><clipPath id="qa"><path transform="translate(0 5)" d="M0 0h48v37.92H0z"/></clipPath></defs></svg><svg viewBox="0 0 73 72" id="phone" xmlns="http://www.w3.org/2000/svg"><g clip-path="url(#ga)"><path d="M56.93 38.995a3.785 3.785 0 0 0-5.357 0l-6.039 6.038c-2.8-.833-8.024-2.727-11.335-6.038-3.31-3.311-5.205-8.536-6.038-11.335l6.038-6.039a3.784 3.784 0 0 0 0-5.357L19.046 1.111a3.784 3.784 0 0 0-5.357 0L3.415 11.385a7.571 7.571 0 0 0-2.22 5.436c.087 5.395 1.515 24.132 16.282 38.9 14.767 14.766 33.505 16.19 38.903 16.281h.106c2 0 3.891-.788 5.323-2.22l10.274-10.274a3.785 3.785 0 0 0 0-5.357L56.93 38.995Zm-.482 25.427c-4.727-.08-20.904-1.348-33.614-14.062C10.082 37.608 8.847 21.375 8.771 16.742l7.596-7.596 9.797 9.797-4.898 4.898a3.789 3.789 0 0 0-1.03 3.455c.09.436 2.314 10.767 8.603 17.056 6.288 6.288 16.62 8.512 17.055 8.603a3.754 3.754 0 0 0 3.455-1.027l4.902-4.898 9.797 9.797-7.6 7.595Z"/></g><defs><clipPath id="ga"><path transform="translate(.5)" d="M0 0h72v72H0z"/></clipPath></defs></svg><svg viewBox="0 0 73 72" id="phone" xmlns="http://www.w3.org/2000/svg"><g clip-path="url(#ra)"><path d="M56.93 38.995a3.785 3.785 0 0 0-5.357 0l-6.039 6.038c-2.8-.833-8.024-2.727-11.335-6.038-3.31-3.311-5.205-8.536-6.038-11.335l6.038-6.039a3.784 3.784 0 0 0 0-5.357L19.046 1.111a3.784 3.784 0 0 0-5.357 0L3.415 11.385a7.571 7.571 0 0 0-2.22 5.436c.087 5.395 1.515 24.132 16.282 38.9C32.244 70.487 50.982 71.911 56.38 72.002h.106c2 0 3.891-.788 5.323-2.22l10.274-10.274a3.785 3.785 0 0 0 0-5.357L56.93 38.995Zm-.482 25.427c-4.727-.08-20.904-1.348-33.614-14.062C10.082 37.608 8.847 21.375 8.771 16.742l7.596-7.596 9.797 9.797-4.898 4.898a3.789 3.789 0 0 0-1.03 3.455c.09.436 2.314 10.767 8.603 17.056 6.288 6.288 16.62 8.512 17.055 8.603a3.754 3.754 0 0 0 3.455-1.027l4.902-4.898 9.797 9.797-7.6 7.595Z"/></g><defs><clipPath id="ra"><path transform="translate(.5)" d="M0 0h72v72H0z"/></clipPath></defs></svg><svg viewBox="0 0 73 72" id="send" xmlns="http://www.w3.org/2000/svg"><g clip-path="url(#ha)"><path d="M70.348 2.162a2.853 2.853 0 0 0-1.417-.804 2.78 2.78 0 0 0-1.611.114L3.862 25.471c-.548.216-1.019.6-1.351 1.1A3.084 3.084 0 0 0 2 28.277c0 .608.178 1.203.51 1.704.333.5.804.885 1.352 1.1l27.69 11.52L42.63 71.398a2.983 2.983 0 0 0 1.026 1.35 2.81 2.81 0 0 0 1.57.54 2.811 2.811 0 0 0 1.622-.561 2.99 2.99 0 0 0 1.032-1.419L70.954 5.312c.197-.53.244-1.109.137-1.667a3.043 3.043 0 0 0-.743-1.483ZM45.225 61.889 37.177 40.89l13.817-14.37-4.067-4.229-13.932 14.49-20.076-8.49L63.483 9.3 45.225 61.89Z"/></g><defs><clipPath id="ha"><path transform="translate(.5)" d="M0 0h72v72H0z"/></clipPath></defs></svg><svg viewBox="0 0 73 72" id="send" xmlns="http://www.w3.org/2000/svg"><g clip-path="url(#sa)"><path d="M70.348 2.162a2.853 2.853 0 0 0-1.417-.804 2.78 2.78 0 0 0-1.611.114L3.862 25.471c-.548.216-1.019.6-1.351 1.1A3.084 3.084 0 0 0 2 28.277c0 .608.178 1.203.51 1.704.333.5.804.885 1.352 1.1l27.69 11.52L42.63 71.398a2.983 2.983 0 0 0 1.026 1.35 2.81 2.81 0 0 0 1.57.54 2.811 2.811 0 0 0 1.622-.561 2.99 2.99 0 0 0 1.032-1.419L70.954 5.312c.197-.53.244-1.109.137-1.667a3.043 3.043 0 0 0-.743-1.483ZM45.225 61.889 37.177 40.89l13.817-14.37-4.067-4.229-13.932 14.49-20.076-8.49L63.483 9.3 45.225 61.89Z"/></g><defs><clipPath id="sa"><path transform="translate(.5)" d="M0 0h72v72H0z"/></clipPath></defs></svg><svg viewBox="0 0 48 48" id="shop" xmlns="http://www.w3.org/2000/svg"><g clip-path="url(#ia)"><g clip-path="url(#ib)"><path opacity=".15" d="M43.65 13.75H4.35c-.018 0-.03.012-.03.03v5.405c0 3.544 2.94 6.419 6.558 6.419a6.593 6.593 0 0 0 5.706-3.242.993.993 0 0 1 1.716 0 6.576 6.576 0 0 0 5.7 3.242c2.448 0 4.584-1.31 5.706-3.254a.97.97 0 0 1 .834-.48h.036c.348 0 .66.184.834.48a6.586 6.586 0 0 0 5.712 3.254c3.618 0 6.558-2.875 6.558-6.419V13.78c0-.018-.012-.03-.03-.03Z"/><path d="M46.2 9.489V1.897C46.2.847 45.342 0 44.28 0H3.72C2.658 0 1.8.848 1.8 1.897v7.592c-1.002.06-1.8.883-1.8 1.89v7.806a10.38 10.38 0 0 0 .864 4.173c.258.604.576 1.173.936 1.712v20.448a1.91 1.91 0 0 0 1.92 1.897h40.56c1.062 0 1.92-.848 1.92-1.897V25.07c.366-.54.679-1.114.936-1.712.57-1.322.864-2.727.864-4.173V11.38a1.905 1.905 0 0 0-1.8-1.891ZM6.12 4.267h35.76v5.216H6.12V4.267Zm21.72 38.886h-7.68v-6.17h7.68v6.17Zm14.064 0H31.68v-8.066a1.906 1.906 0 0 0-1.92-1.897H18.24c-1.062 0-1.92.848-1.92 1.897v8.066H6.12V28.8c.174.082.354.165.54.236a10.93 10.93 0 0 0 4.224.836 11.004 11.004 0 0 0 6.546-2.146.039.039 0 0 1 .036 0c.716.53 1.496.97 2.322 1.31a10.93 10.93 0 0 0 4.224.836 11.004 11.004 0 0 0 6.546-2.146.039.039 0 0 1 .036 0c.716.53 1.496.97 2.322 1.31a10.93 10.93 0 0 0 4.224.836c1.464 0 2.88-.278 4.224-.835.18-.078.36-.155.54-.238v14.355Zm1.776-23.968c0 3.544-2.94 6.419-6.558 6.419a6.586 6.586 0 0 1-5.712-3.254.963.963 0 0 0-.834-.48h-.036a.97.97 0 0 0-.834.48 6.515 6.515 0 0 1-2.409 2.387 6.617 6.617 0 0 1-3.297.867 6.576 6.576 0 0 1-5.7-3.242.993.993 0 0 0-1.716 0 6.539 6.539 0 0 1-2.413 2.377 6.641 6.641 0 0 1-3.293.865c-3.618 0-6.558-2.875-6.558-6.419V13.78c0-.018.012-.03.03-.03h39.3c.018 0 .03.012.03.03v5.405Z"/></g></g><defs><clipPath id="ia"><path d="M0 0h48v48H0z"/></clipPath><clipPath id="ib"><path d="M0 0h48v47.415H0z"/></clipPath></defs></svg><svg viewBox="0 0 48 48" id="shop" xmlns="http://www.w3.org/2000/svg"><g clip-path="url(#ta)"><g clip-path="url(#tb)"><path opacity=".15" d="M43.65 13.75H4.35c-.018 0-.03.012-.03.03v5.405c0 3.544 2.94 6.419 6.558 6.419a6.593 6.593 0 0 0 5.706-3.242.993.993 0 0 1 1.716 0 6.576 6.576 0 0 0 5.7 3.242c2.448 0 4.584-1.31 5.706-3.254a.97.97 0 0 1 .834-.48h.036c.348 0 .66.184.834.48a6.586 6.586 0 0 0 5.712 3.254c3.618 0 6.558-2.875 6.558-6.419V13.78c0-.018-.012-.03-.03-.03Z"/><path d="M46.2 9.489V1.897C46.2.847 45.342 0 44.28 0H3.72C2.658 0 1.8.848 1.8 1.897v7.592c-1.002.06-1.8.883-1.8 1.89v7.806a10.38 10.38 0 0 0 .864 4.173c.258.604.576 1.173.936 1.712v20.448a1.91 1.91 0 0 0 1.92 1.897h40.56c1.062 0 1.92-.848 1.92-1.897V25.07c.366-.54.679-1.114.936-1.712.57-1.322.864-2.727.864-4.173V11.38a1.905 1.905 0 0 0-1.8-1.891ZM6.12 4.267h35.76v5.216H6.12V4.267Zm21.72 38.886h-7.68v-6.17h7.68v6.17Zm14.064 0H31.68v-8.066a1.906 1.906 0 0 0-1.92-1.897H18.24c-1.062 0-1.92.848-1.92 1.897v8.066H6.12V28.8c.174.082.354.165.54.236a10.93 10.93 0 0 0 4.224.836 11.004 11.004 0 0 0 6.546-2.146.039.039 0 0 1 .036 0c.716.53 1.496.97 2.322 1.31a10.93 10.93 0 0 0 4.224.836 11.004 11.004 0 0 0 6.546-2.146.039.039 0 0 1 .036 0c.716.53 1.496.97 2.322 1.31a10.93 10.93 0 0 0 4.224.836c1.464 0 2.88-.278 4.224-.835.18-.078.36-.155.54-.238v14.355Zm1.776-23.968c0 3.544-2.94 6.419-6.558 6.419a6.586 6.586 0 0 1-5.712-3.254.963.963 0 0 0-.834-.48h-.036a.97.97 0 0 0-.834.48 6.515 6.515 0 0 1-2.409 2.387 6.617 6.617 0 0 1-3.297.867 6.576 6.576 0 0 1-5.7-3.242.993.993 0 0 0-1.716 0 6.539 6.539 0 0 1-2.413 2.377 6.641 6.641 0 0 1-3.293.865c-3.618 0-6.558-2.875-6.558-6.419V13.78c0-.018.012-.03.03-.03h39.3c.018 0 .03.012.03.03v5.405Z"/></g></g><defs><clipPath id="ta"><path d="M0 0h48v48H0z"/></clipPath><clipPath id="tb"><path d="M0 0h48v47.415H0z"/></clipPath></defs></svg><svg viewBox="0 0 24 24" id="twitter" xmlns="http://www.w3.org/2000/svg"><path d="M18.244 2.25h3.308l-7.227 8.26 8.502 11.24H16.17l-5.214-6.817L4.99 21.75H1.68l7.73-8.835L1.254 2.25H8.08l4.713 6.231 5.451-6.231Zm-1.161 17.52h1.833L7.084 4.126H5.117L17.083 19.77Z"/></svg><svg viewBox="0 0 24 24" id="twitter" xmlns="http://www.w3.org/2000/svg"><path d="M18.244 2.25h3.308l-7.227 8.26 8.502 11.24H16.17l-5.214-6.817L4.99 21.75H1.68l7.73-8.835L1.254 2.25H8.08l4.713 6.231 5.451-6.231Zm-1.161 17.52h1.833L7.084 4.126H5.117L17.083 19.77Z"/></svg><svg viewBox="0 0 24 18" id="youtube" xmlns="http://www.w3.org/2000/svg"><g clip-path="url(#ka)"><path d="M23.47 2.931a3.192 3.192 0 0 0-.775-1.409 2.966 2.966 0 0 0-1.34-.815c-1.867-.53-9.367-.53-9.367-.53s-7.5 0-9.367.53a2.966 2.966 0 0 0-1.34.815c-.372.39-.639.876-.775 1.41A34.16 34.16 0 0 0 0 9a34.16 34.16 0 0 0 .505 6.068c.136.533.403 1.019.775 1.409.37.39.833.671 1.34.815 1.866.53 9.367.53 9.367.53s7.5 0 9.367-.53a2.966 2.966 0 0 0 1.34-.815c.371-.39.639-.876.775-1.41.348-2 .518-4.033.505-6.067a34.162 34.162 0 0 0-.505-6.069Zm-13.88 9.85V5.218L15.815 9 9.59 12.78Z"/></g><defs><clipPath id="ka"><path transform="translate(0 .158)" d="M0 0h24v17.684H0z"/></clipPath></defs></svg><svg viewBox="0 0 24 18" id="youtube" xmlns="http://www.w3.org/2000/svg"><g clip-path="url(#va)"><path d="M23.47 2.931a3.192 3.192 0 0 0-.775-1.409 2.966 2.966 0 0 0-1.34-.815c-1.867-.53-9.367-.53-9.367-.53s-7.5 0-9.367.53a2.966 2.966 0 0 0-1.34.815c-.372.39-.639.876-.775 1.41A34.16 34.16 0 0 0 0 9a34.16 34.16 0 0 0 .505 6.068c.136.533.403 1.019.775 1.409.37.39.833.671 1.34.815 1.866.53 9.367.53 9.367.53s7.5 0 9.367-.53a2.966 2.966 0 0 0 1.34-.815c.371-.39.639-.876.775-1.41.348-2 .518-4.033.505-6.067a34.162 34.162 0 0 0-.505-6.069Zm-13.88 9.85V5.218L15.815 9 9.59 12.78Z"/></g><defs><clipPath id="va"><path transform="translate(0 .158)" d="M0 0h24v17.684H0z"/></clipPath></defs></svg></svg>