<svg width="49" height="48" fill="none" xmlns="http://www.w3.org/2000/svg">
  <g clip-path="url(#a)">
    <g clip-path="url(#b)">
      <path d="M43.589 12.525h-5.07v-5.07a3.38 3.38 0 0 0-3.38-3.38H14.861a3.38 3.38 0 0 0-3.38 3.38v5.07h-5.07a5.07 5.07 0 0 0-5.07 5.07v23.658a3.38 3.38 0 0 0 3.38 3.38H45.28a3.38 3.38 0 0 0 3.38-3.38V17.595a5.07 5.07 0 0 0-5.07-5.07ZM14.86 7.455h20.278v5.07H14.861v-5.07Zm30.418 33.798H4.721V26.044H18.24v8.45h13.52v-8.45h13.518v15.21ZM21.62 26.044h6.76v5.07h-6.76v-5.07Zm-16.898-3.38v-5.07a1.69 1.69 0 0 1 1.69-1.689h37.177a1.69 1.69 0 0 1 1.69 1.69v5.07H4.721Z" fill="#0D5C63"/>
    </g>
  </g>
  <defs>
    <clipPath id="a">
      <path fill="#fff" transform="translate(.5)" d="M0 0h48v48H0z"/>
    </clipPath>
    <clipPath id="b">
      <path fill="#fff" transform="translate(1 4)" d="M0 0h48v40.709H0z"/>
    </clipPath>
  </defs>
</svg>
