<svg width="32" height="32" fill="none" xmlns="http://www.w3.org/2000/svg">
  <g clip-path="url(#a)">
    <path d="m29.815 10.365-1.998 3.006a13 13 0 0 1-.358 12.317H4.937A13 13 0 0 1 22.015 7.57l3.007-2a16.25 16.25 0 0 0-22.88 21.743 3.25 3.25 0 0 0 2.795 1.625h22.506a3.25 3.25 0 0 0 2.827-1.625 16.25 16.25 0 0 0-.438-16.965l-.017.017ZM13.907 21.48a3.25 3.25 0 0 0 4.598 0l9.198-13.797-13.796 9.198a3.25 3.25 0 0 0 0 4.599Z" fill="#FF7B47"/>
  </g>
  <defs>
    <clipPath id="a">
      <path fill="#fff" d="M0 0h32v32H0z"/>
    </clipPath>
  </defs>
</svg>
