<svg width="49" height="48" fill="none" xmlns="http://www.w3.org/2000/svg">
  <g clip-path="url(#a)">
    <path d="M44.15 22.282a4.712 4.712 0 0 0-1.683.324l-5.74-4.784a6.215 6.215 0 0 0 .242-1.633c0-3.379-2.667-6.094-5.985-6.094-3.318 0-5.984 2.715-5.984 6.094 0 .965.24 1.864.627 2.674l-6.963 8.38a4.844 4.844 0 0 0-.846-.086c-.428 0-.833.073-1.225.18l-6.135-6.247c.107-.397.18-.809.18-1.245 0-2.7-2.136-4.875-4.788-4.875-2.653 0-4.788 2.174-4.788 4.875 0 2.7 2.135 4.875 4.788 4.875.428 0 .833-.073 1.225-.18l6.135 6.246a4.725 4.725 0 0 0-.18 1.246c0 2.7 2.136 4.875 4.789 4.875 2.652 0 4.787-2.174 4.787-4.875 0-.578-.115-1.121-.294-1.636l6.973-8.39c.543.162 1.106.276 1.7.276a5.85 5.85 0 0 0 2.711-.685l5.743 4.785c-.045.256-.07.515-.077.775 0 2.7 2.136 4.875 4.788 4.875s4.788-2.174 4.788-4.875c0-2.7-2.136-4.875-4.788-4.875Z" fill="#0D5C63"/>
  </g>
  <defs>
    <clipPath id="a">
      <path fill="#fff" transform="translate(.5)" d="M0 0h48v48H0z"/>
    </clipPath>
  </defs>
</svg>
