<svg width="49" height="48" fill="none" xmlns="http://www.w3.org/2000/svg">
  <g clip-path="url(#a)">
    <g clip-path="url(#b)" fill="#0D5C63">
      <path d="M24.84 22.802c4.305 0 7.652-3.495 7.652-7.785s-3.507-7.626-7.81-7.626c-4.305 0-7.653 3.495-7.653 7.626 0 4.29 3.507 7.785 7.812 7.785Zm-.159-12.233c.16 0 .16 0 0 0 2.55 0 4.623 2.065 4.623 4.607 0 2.542-2.072 4.449-4.623 4.449a4.448 4.448 0 0 1-4.463-4.449c0-2.542 2.072-4.607 4.463-4.607ZM48.434 21.849c-3.029-2.701-7.014-4.131-11.159-3.972H36c-.32 1.27-.797 2.383-1.435 3.336.956-.159 1.754-.159 2.71-.159 3.029-.159 6.058.795 8.449 2.542v11.44h3.188v-12.71l-.478-.477ZM33.608 7.708c.797-1.906 3.03-2.86 5.102-2.065 1.913.794 2.869 3.018 2.072 5.084-.638 1.43-2.072 2.383-3.507 2.383-.319 0-.797 0-1.116-.159.16.795.16 1.589.16 2.224v.954c.318 0 .637.159.956.159 3.985 0 7.174-3.178 7.174-6.991 0-3.972-3.189-7.15-7.015-7.15-2.55 0-4.782 1.271-6.057 3.496.796.476 1.594 1.112 2.231 2.065ZM15.435 21.372c-.638-.953-1.116-2.065-1.434-3.336h-1.276a16.438 16.438 0 0 0-11.159 3.813l-.478.476v12.71h3.188V23.598c2.55-1.748 5.42-2.702 8.45-2.543.956 0 1.912.16 2.71.318ZM12.725 16.13c.319 0 .638 0 .957-.16v-.953c0-.794 0-1.589.159-2.224-.319.159-.797.159-1.116.159-2.072 0-3.826-1.748-3.826-3.813 0-2.066 1.754-3.813 3.826-3.813 1.594 0 3.029.953 3.667 2.383.637-.795 1.594-1.589 2.39-2.225-2.072-3.336-6.376-4.448-9.723-2.383-3.348 2.066-4.464 6.355-2.392 9.692 1.276 2.065 3.508 3.336 6.058 3.336ZM37.913 31.382l-.319-.477c-3.188-3.495-7.652-5.56-12.434-5.402-4.783-.159-9.406 1.907-12.594 5.402l-.319.477v12.074c0 1.43 1.116 2.701 2.71 2.701h20.405c1.435 0 2.71-1.27 2.71-2.7V31.381h-.16ZM34.725 42.98h-19.29V32.494c2.551-2.542 6.058-3.813 9.725-3.813 3.507-.16 7.014 1.27 9.564 3.813V42.98Z"/>
    </g>
  </g>
  <defs>
    <clipPath id="a">
      <path fill="#fff" transform="translate(.5)" d="M0 0h48v48H0z"/>
    </clipPath>
    <clipPath id="b">
      <path fill="#fff" transform="translate(1 2)" d="M0 0h48v44.211H0z"/>
    </clipPath>
  </defs>
</svg>
