<svg width="512" height="512" viewBox="0 0 512 512" fill="none" xmlns="http://www.w3.org/2000/svg">
<path opacity="0.2" d="M332.037 512C320.339 511.956 308.668 510.943 297.151 508.971L130.817 480.747C36.6276 464.768 -13.4944 395.904 3.16117 305.301L32.436 145.28C46.8738 66.4533 102.03 19.4133 179.919 19.4133C191.624 19.4559 203.303 20.4694 214.827 22.4427L381.161 50.6667C475.328 66.6453 525.45 135.509 508.861 226.112L479.542 386.133C465.104 464.939 409.948 512 332.037 512Z" fill="#1A1A1A"/>
<path d="M332.037 492.608C320.339 492.564 308.668 491.551 297.151 489.579L130.817 461.355C36.6276 445.376 -13.4944 376.512 3.16117 285.867L32.436 125.867C46.8738 47.0613 102.03 0 179.919 0C191.624 0.0425414 203.303 1.05607 214.827 3.02933L381.161 31.2533C475.328 47.232 525.45 116.096 508.861 206.699L479.52 366.699C465.104 445.547 409.948 492.608 332.037 492.608Z" fill="#F2F2F2"/>
<path d="M241.928 166.741L254.814 168.875L244.811 223.488L225.982 213.419C216.49 208.256 210.924 203.968 213.984 187.349C214.878 181.065 218.316 175.375 223.549 171.515C228.782 167.656 235.387 165.941 241.928 166.741ZM257.164 323.691L270.05 325.824C276.598 326.624 283.209 324.903 288.443 321.035C293.677 317.167 297.11 311.465 297.994 305.173C301.054 288.555 295.488 284.267 285.996 279.104L267.167 269.035L257.164 323.691ZM469.185 199.957L439.844 359.957C427.091 429.461 376.437 463.595 304.159 451.328L137.825 423.125C65.5698 410.859 30.0852 362.112 42.8153 292.608L72.1566 132.608C84.9089 63.0827 135.563 28.9494 207.841 41.216L374.175 69.44C446.43 81.7067 481.915 130.453 469.185 199.957ZM272.733 238.699L284.598 173.973L291.74 175.189C299.732 176.871 306.706 181.531 311.133 188.149C315.56 194.766 317.08 202.802 315.359 210.496C314.745 214.261 315.691 218.107 317.994 221.207C320.297 224.308 323.772 226.416 327.673 227.078C331.574 227.741 335.59 226.904 338.857 224.749C342.124 222.594 344.381 219.291 345.144 215.552C348.242 200.262 344.914 184.414 335.89 171.479C326.865 158.543 312.88 149.575 296.996 146.539L289.855 145.323L291.873 134.251C292.218 132.371 292.175 130.444 291.746 128.58C291.317 126.717 290.51 124.952 289.372 123.388C288.235 121.824 286.788 120.491 285.114 119.465C283.441 118.439 281.574 117.74 279.62 117.408C277.665 117.076 275.662 117.118 273.725 117.53C271.787 117.943 269.953 118.719 268.327 119.813C266.701 120.908 265.315 122.299 264.249 123.909C263.182 125.519 262.455 127.315 262.11 129.195L260.07 140.267L247.162 138.133C232.721 135.974 217.978 139.416 206.173 147.704C194.368 155.991 186.464 168.447 184.199 182.336C181.062 193.276 182.043 204.931 186.969 215.243C191.895 225.556 200.45 233.863 211.123 238.699L239.245 253.909L227.38 318.635L220.238 317.419C212.246 315.737 205.272 311.077 200.845 304.46C196.418 297.842 194.898 289.806 196.619 282.112C197.233 278.347 196.287 274.501 193.984 271.401C191.681 268.3 188.206 266.192 184.305 265.53C180.404 264.867 176.388 265.704 173.121 267.859C169.854 270.015 167.597 273.317 166.834 277.056C163.736 292.346 167.064 308.194 176.088 321.13C185.113 334.065 199.098 343.033 214.982 346.069L222.123 347.285L220.105 358.357C219.76 360.237 219.803 362.164 220.232 364.028C220.661 365.892 221.468 367.656 222.606 369.22C223.743 370.784 225.19 372.117 226.864 373.143C228.537 374.169 230.404 374.868 232.358 375.2C234.313 375.532 236.316 375.491 238.253 375.078C240.191 374.665 242.025 373.889 243.651 372.795C245.277 371.7 246.663 370.309 247.729 368.699C248.796 367.089 249.523 365.293 249.868 363.413L251.908 352.341L264.816 354.475C279.264 356.634 294.012 353.186 305.819 344.889C317.625 336.592 325.524 324.126 327.779 310.229C330.916 299.289 329.935 287.634 325.009 277.322C320.083 267.01 311.528 258.703 300.855 253.867L272.733 238.699Z" fill="#50B36F"/>
</svg>
