<svg width="88" height="20" fill="none" xmlns="http://www.w3.org/2000/svg">
  <path d="m10.696 19-3.24-4.68H3.88V19H-.008V2.2h7.272c1.488 0 2.776.248 3.864.744 1.104.496 1.952 1.2 2.544 2.112.592.912.888 1.992.888 3.24 0 1.248-.304 2.328-.912 3.24-.592.896-1.44 1.584-2.544 2.064l3.768 5.4h-4.176Zm-.072-10.704c0-.944-.304-1.664-.912-2.16-.608-.512-1.496-.768-2.664-.768H3.88v5.856h3.168c1.168 0 2.056-.256 2.664-.768.608-.512.912-1.232.912-2.16Zm19.5 4.296c0 .048-.024.384-.072 1.008h-9.768c.176.8.592 1.432 1.248 1.896.656.464 1.472.696 2.448.696.672 0 1.264-.096 1.776-.288a4.46 4.46 0 0 0 1.464-.96l1.992 2.16c-1.216 1.392-2.992 2.088-5.328 2.088-1.456 0-2.744-.28-3.864-.84-1.12-.576-1.984-1.368-2.592-2.376-.608-1.008-.912-2.152-.912-3.432 0-1.264.296-2.4.888-3.408a6.3 6.3 0 0 1 2.472-2.376c1.056-.576 2.232-.864 3.528-.864 1.264 0 2.408.272 3.432.816a5.857 5.857 0 0 1 2.4 2.352c.592 1.008.888 2.184.888 3.528Zm-6.696-3.864c-.848 0-1.56.24-2.136.72-.576.48-.928 1.136-1.056 1.968h6.36c-.128-.816-.48-1.464-1.056-1.944-.576-.496-1.28-.744-2.112-.744Zm9.29-7.536h3.743V19h-3.744V1.192Zm20.134 4.896L47.404 19H43.54L38.116 6.088h3.864l3.576 8.784 3.696-8.784h3.6Zm1.628 0h3.744V19H54.48V6.088Zm1.872-1.8c-.688 0-1.248-.2-1.68-.6a1.946 1.946 0 0 1-.648-1.488c0-.592.216-1.088.648-1.488.432-.4.992-.6 1.68-.6s1.248.192 1.68.576c.432.384.648.864.648 1.44 0 .624-.216 1.144-.648 1.56-.432.4-.992.6-1.68.6Zm9.79 14.904c-1.072 0-2.12-.128-3.144-.384-1.024-.272-1.84-.608-2.448-1.008l1.248-2.688c.576.368 1.272.672 2.088.912a9.042 9.042 0 0 0 2.4.336c1.584 0 2.376-.392 2.376-1.176 0-.368-.216-.632-.648-.792-.432-.16-1.096-.296-1.992-.408-1.056-.16-1.928-.344-2.616-.552a4.142 4.142 0 0 1-1.8-1.104c-.496-.528-.744-1.28-.744-2.256 0-.816.232-1.536.696-2.16.48-.64 1.168-1.136 2.064-1.488.912-.352 1.984-.528 3.216-.528.912 0 1.816.104 2.712.312.912.192 1.664.464 2.256.816l-1.248 2.664a7.45 7.45 0 0 0-3.72-.96c-.8 0-1.4.112-1.8.336-.4.224-.6.512-.6.864 0 .4.216.68.648.84.432.16 1.12.312 2.064.456 1.056.176 1.92.368 2.592.576a3.802 3.802 0 0 1 1.752 1.08c.496.528.744 1.264.744 2.208 0 .8-.24 1.512-.72 2.136-.48.624-1.184 1.112-2.112 1.464-.912.336-2 .504-3.264.504Zm21.154-6.6c0 .048-.024.384-.072 1.008h-9.768c.176.8.592 1.432 1.248 1.896.656.464 1.472.696 2.448.696.672 0 1.264-.096 1.776-.288a4.46 4.46 0 0 0 1.464-.96l1.992 2.16c-1.216 1.392-2.992 2.088-5.328 2.088-1.456 0-2.744-.28-3.864-.84-1.12-.576-1.984-1.368-2.592-2.376-.608-1.008-.912-2.152-.912-3.432 0-1.264.296-2.4.888-3.408a6.3 6.3 0 0 1 2.472-2.376c1.056-.576 2.232-.864 3.528-.864 1.264 0 2.408.272 3.432.816a5.857 5.857 0 0 1 2.4 2.352c.592 1.008.888 2.184.888 3.528ZM80.6 8.728c-.848 0-1.56.24-2.136.72-.576.48-.928 1.136-1.056 1.968h6.36c-.128-.816-.48-1.464-1.056-1.944-.576-.496-1.28-.744-2.112-.744Z" fill="#252B42"/>
</svg>
